<?xml version="1.0" encoding="UTF-8" standalone="no"?>
<svg
   xmlns:dc="http://purl.org/dc/elements/1.1/"
   xmlns:cc="http://creativecommons.org/ns#"
   xmlns:rdf="http://www.w3.org/1999/02/22-rdf-syntax-ns#"
   xmlns:svg="http://www.w3.org/2000/svg"
   xmlns="http://www.w3.org/2000/svg"
   xmlns:sodipodi="http://sodipodi.sourceforge.net/DTD/sodipodi-0.dtd"
   xmlns:inkscape="http://www.inkscape.org/namespaces/inkscape"
   width="115.901mm"
   height="15.686mm"
   viewBox="0 0 115.901 15.686"
   version="1.1"
   id="svg8"
   inkscape:version="1.0.2-2 (e86c870879, 2021-01-15)"
   sodipodi:docname="logo.svg">
  <defs
     id="defs2">
    <rect
       x="94.078873"
       y="132.56569"
       width="37.551369"
       height="20.980658"
       id="rect881" />
    <filter
       inkscape:collect="always"
       style="color-interpolation-filters:sRGB"
       id="filter1465"
       x="-0.012388037"
       width="1.0247761"
       y="-0.04315339"
       height="1.0863068">
      <feGaussianBlur
         inkscape:collect="always"
         stdDeviation="0.5071068"
         id="feGaussianBlur1467" />
    </filter>
    <filter
       inkscape:collect="always"
       style="color-interpolation-filters:sRGB"
       id="filter1469"
       x="-0.012388037"
       width="1.0247761"
       y="-0.04315339"
       height="1.0863068">
      <feGaussianBlur
         inkscape:collect="always"
         stdDeviation="0.5071068"
         id="feGaussianBlur1471" />
    </filter>
  </defs>
  <sodipodi:namedview
     id="base"
     pagecolor="#ffffff"
     bordercolor="#666666"
     borderopacity="1.0"
     inkscape:pageopacity="0.0"
     inkscape:pageshadow="2"
     inkscape:zoom="2.8284271"
     inkscape:cx="171.44547"
     inkscape:cy="78.494696"
     inkscape:document-units="mm"
     inkscape:current-layer="g1485"
     inkscape:document-rotation="0"
     showgrid="false"
     showguides="false"
     inkscape:guide-bbox="true"
     inkscape:window-width="1858"
     inkscape:window-height="1057"
     inkscape:window-x="54"
     inkscape:window-y="-8"
     inkscape:window-maximized="1">
    <sodipodi:guide
       position="0,40.195284"
       orientation="1,0"
       id="guide879" />
    <sodipodi:guide
       position="-1.1823568,35.532002"
       orientation="0,1"
       id="guide881"
       inkscape:label=""
       inkscape:locked="false"
       inkscape:color="rgb(0,0,255)" />
    <sodipodi:guide
       position="115.901,15.573454"
       orientation="-1,0"
       id="guide941"
       inkscape:label=""
       inkscape:locked="false"
       inkscape:color="rgb(0,0,255)" />
    <sodipodi:guide
       position="-0.057877605,19.846002"
       orientation="0,1"
       id="guide943"
       inkscape:label=""
       inkscape:locked="false"
       inkscape:color="rgb(0,0,255)" />
  </sodipodi:namedview>
  <metadata
     id="metadata5">
    <rdf:RDF>
      <cc:Work
         rdf:about="">
        <dc:format>image/svg+xml</dc:format>
        <dc:type
           rdf:resource="http://purl.org/dc/dcmitype/StillImage" />
        <dc:title></dc:title>
      </cc:Work>
    </rdf:RDF>
  </metadata>
  <g
     inkscape:label="Layer 1"
     inkscape:groupmode="layer"
     id="layer1">
    <g
       id="g1485"
       transform="translate(-39.014201,-76.807501)"
       inkscape:export-xdpi="87.211441"
       inkscape:export-ydpi="87.211441">
      <g
         id="g1227"
         style="fill:#1a1a1a"
         transform="matrix(1.0306812,0,0,0.99958712,-2.1124935,0.03484211)">
        <g
           aria-label="CODE "
           id="g911"
           style="font-size:10.5833px;line-height:1.25;font-family:'Cooper Black';-inkscape-font-specification:'Cooper Black, ';letter-spacing:0px;fill:#1a1a1a;fill-opacity:1;stroke-width:0.264583"
           transform="matrix(1.9871015,0,0,1.9871015,-200.75204,-143.68094)" />
        <g
           aria-label="CODE "
           id="g919"
           style="font-size:10.5833px;line-height:1.25;font-family:'Cooper Black';-inkscape-font-specification:'Cooper Black, ';letter-spacing:0px;fill:#1a1a1a;fill-opacity:1;stroke-width:0.264583"
           transform="matrix(1.9871015,0,0,1.9871015,-201.81038,-142.6226)" />
        <g
           aria-label="CODE "
           id="text861"
           style="font-size:10.5833px;line-height:1.25;font-family:'Cooper Black';-inkscape-font-specification:'Cooper Black, ';letter-spacing:0px;fill:#1a1a1a;stroke-width:0.264583"
           transform="matrix(1.9871015,0,0,1.9871015,-201.28121,-143.15177)">
          <path
             id="path885"
             style="font-style:normal;font-variant:normal;font-weight:normal;font-stretch:normal;font-family:'Berlin Sans FB Demi';-inkscape-font-specification:'Berlin Sans FB Demi';fill:#050505;fill-opacity:1;stroke-width:0.273759"
             d="m 132.00952,110.69195 c -1.10145,0 -2.01577,0.38676 -2.74294,1.16027 -0.71291,0.75568 -1.06937,1.68784 -1.06937,2.79642 0,1.10501 0.35646,2.03359 1.06937,2.78572 0.72717,0.76994 1.64149,1.15491 2.74294,1.15491 1.10858,0 2.02469,-0.3814 2.74829,-1.14422 0.70935,-0.75213 1.06403,-1.68428 1.06403,-2.79641 0,-1.10145 -0.35824,-2.03361 -1.07471,-2.79642 -0.73075,-0.77351 -1.64328,-1.16027 -2.73761,-1.16027 z m -7.02044,0.0213 c -1.06224,0 -1.93735,0.39567 -2.6253,1.187 -0.65945,0.75569 -0.98918,1.67536 -0.98918,2.75899 0,1.11927 0.33686,2.04606 1.01056,2.78037 0.69152,0.75925 1.59338,1.13888 2.70552,1.13889 1.08719,0 1.95873,-0.39033 2.61462,-1.17098 0.0749,-0.0927 0.11228,-0.16751 0.11228,-0.22456 v -5.5e-4 c 0,-0.0392 -0.1301,-0.25665 -0.39032,-0.65232 -0.25307,-0.38142 -0.40814,-0.6042 -0.46518,-0.66836 -0.0356,-0.0391 -0.0713,-0.0589 -0.10694,-0.0589 -0.0178,0 -0.10515,0.0677 -0.26199,0.20318 -0.18892,0.16041 -0.37429,0.28569 -0.55607,0.37482 -0.27804,0.13545 -0.57212,0.20317 -0.88224,0.20317 -0.52399,0 -0.94284,-0.19961 -1.25652,-0.59884 -0.28873,-0.36714 -0.4331,-0.82164 -0.4331,-1.36346 0,-0.53468 0.14437,-0.98381 0.4331,-1.3474 0.31368,-0.39211 0.73253,-0.58816 1.25652,-0.58816 0.30299,0 0.59529,0.0713 0.87688,0.21387 0.18536,0.0963 0.37429,0.22993 0.56678,0.40102 0.16043,0.14259 0.24954,0.21388 0.26734,0.21388 0.0428,0 0.0784,-0.0143 0.10693,-0.0428 0.0642,-0.0535 0.21922,-0.29764 0.46519,-0.73252 0.24951,-0.43486 0.37427,-0.68617 0.37427,-0.75392 0,-0.0606 -0.0356,-0.1301 -0.10693,-0.20852 -0.65589,-0.70935 -1.5613,-1.06402 -2.71622,-1.06402 z m 13.05172,0.16576 c -0.57746,0 -0.99274,0.0143 -1.24583,0.0427 -0.10337,0.0143 -0.15506,0.0589 -0.15506,0.13368 0,0.40636 0.0143,1.01947 0.0428,1.83932 0.0321,0.81629 0.0481,1.4294 0.0481,1.83933 -1e-5,0.3921 -0.0161,0.98205 -0.0481,1.76981 -0.0285,0.78421 -0.0428,1.37236 -0.0428,1.76446 0,0.082 0.0517,0.12298 0.15506,0.12298 0.17466,0 0.43666,0.005 0.78599,0.0155 0.35289,0.0107 0.61667,0.0161 0.79134,0.0161 0.93035,0 1.4989,-0.003 1.70565,-0.0102 1.07649,-0.0356 1.9124,-0.39745 2.50768,-1.08541 0.6737,-0.76996 1.01056,-1.67892 1.01056,-2.72691 0,-0.57745 -0.12476,-1.13888 -0.37428,-1.68426 -0.26021,-0.57745 -0.6149,-1.0266 -1.06403,-1.34741 -0.47766,-0.3422 -1.13889,-0.55608 -1.98368,-0.64162 -0.32439,-0.0321 -1.03552,-0.0481 -2.1334,-0.0481 z m 6.50232,0.0107 c -0.0962,0 -0.14077,0.0409 -0.13367,0.12297 l 0.005,0.0748 c 0.0285,0.56678 0.0481,0.99273 0.0589,1.2779 0.0427,1.10858 0.0642,1.86606 0.0642,2.27242 0,0.39922 -0.0231,0.99986 -0.0695,1.80189 -0.0427,0.79847 -0.0642,1.39732 -0.0642,1.79656 0,0.10337 0.0589,0.15505 0.17644,0.15505 0.27091,0 0.67727,0.002 1.21908,0.005 0.54182,0.003 0.94997,0.005 1.22444,0.005 1.25829,0 2.01755,0.0178 2.27776,0.0535 0.0748,0.0107 0.12833,0.016 0.16041,0.016 0.0748,0 0.13368,-0.0338 0.17645,-0.10159 0.0499,-0.0855 0.10694,-0.35112 0.1711,-0.79668 0.0607,-0.40993 0.0909,-0.69154 0.0909,-0.84481 l 5.4e-4,5.4e-4 c 0,-0.12832 -0.0392,-0.19249 -0.11763,-0.19249 -0.18535,0 -0.46517,0.0178 -0.83946,0.0535 -0.37071,0.0321 -0.65053,0.0481 -0.83946,0.0481 h -0.78064 c -0.39563,-0.025 -0.62377,-0.10516 -0.6844,-0.24061 -0.0356,-0.0784 -0.0534,-0.25309 -0.0534,-0.52399 0,-0.2032 0.002,-0.31371 0.005,-0.33151 0.0249,-0.0713 0.11051,-0.10694 0.25665,-0.10694 h 0.56677 c 0.7236,0 1.187,0.0107 1.39019,0.0321 l 0.48121,0.0535 c 0.10337,0 0.15506,-0.0356 0.15506,-0.10693 0,-0.28517 0.0138,-0.57034 0.0423,-0.8555 0.0642,-0.62023 0.0963,-0.89293 0.0963,-0.81807 0,-0.082 -0.0428,-0.12298 -0.12833,-0.12298 -0.0713,0 -0.16754,0.007 -0.28873,0.0214 -0.15687,0.0144 -0.2549,0.0233 -0.29408,0.0268 -0.45983,0.025 -0.91432,0.0374 -1.36345,0.0374 -0.0677,0 -0.15328,0.004 -0.25665,0.0107 -0.10336,0.003 -0.17287,0.005 -0.20852,0.005 -0.17107,0 -0.28692,-0.0339 -0.34756,-0.10159 -0.0713,-0.0785 -0.10693,-0.23884 -0.10693,-0.48122 0,-0.23171 0.009,-0.36895 0.0268,-0.41171 0.0428,-0.0891 0.15862,-0.13368 0.34754,-0.13368 0.7557,0 1.60763,0.0392 2.55581,0.11764 0.0535,0.003 0.091,0.005 0.11229,0.005 0.0713,0 0.10693,-0.0374 0.10693,-0.11229 0,-0.0891 -0.0196,-0.34042 -0.0589,-0.75391 -0.0356,-0.41705 -0.0624,-0.66656 -0.0802,-0.74856 -0.0285,-0.13901 -0.13492,-0.20852 -0.32028,-0.20852 -0.26021,0 -0.65232,0.007 -1.1763,0.0213 -0.524,0.0143 -0.9161,0.0214 -1.17632,0.0214 -0.26378,0 -0.66123,-0.007 -1.19235,-0.0214 -0.52756,-0.0143 -0.92323,-0.0213 -1.18701,-0.0213 z m -4.97847,1.64149 c 0.59884,0 1.08007,0.19783 1.44365,0.59349 0.36002,0.38142 0.54004,0.87334 0.54004,1.47574 0,0.6345 -0.16575,1.14602 -0.49726,1.53456 -0.3529,0.40992 -0.83768,0.61488 -1.45435,0.61488 -0.57033,0 -0.85549,-0.0767 -0.85549,-0.22991 0,-0.21031 -0.004,-0.52222 -0.0107,-0.9357 -0.007,-0.41705 -0.0107,-0.72895 -0.0107,-0.93571 0,-0.2103 0.004,-0.52577 0.0107,-0.94639 0.007,-0.42418 0.0107,-0.74143 0.0107,-0.95174 0,-0.14616 0.27446,-0.21922 0.82341,-0.21922 z m -7.55513,0.15505 c 0.52756,0 0.96066,0.19606 1.29929,0.58816 0.32439,0.37428 0.48657,0.82876 0.48657,1.36345 0,0.50974 -0.16754,0.9571 -0.50261,1.34206 -0.35288,0.40281 -0.78064,0.6042 -1.28325,0.6042 -0.53825,0 -0.97491,-0.1907 -1.30998,-0.57211 -0.31725,-0.36359 -0.47587,-0.81807 -0.47587,-1.36346 0,-0.50973 0.16932,-0.96065 0.50796,-1.35275 0.34931,-0.40636 0.77529,-0.60955 1.27789,-0.60955 z" />
        </g>
      </g>
      <g
         id="g1219"
         transform="matrix(0.90415516,0,0,0.92135512,68.253951,-9.8223007)">
        <g
           aria-label="PLAY"
           transform="matrix(1.9871015,0,0,1.9871015,-144.25851,-173.95317)"
           id="g915"
           style="font-size:10.5833px;line-height:1.25;font-family:'Cooper Black';-inkscape-font-specification:'Cooper Black, ';white-space:pre;shape-inside:url(#rect881);fill:#1affff;fill-opacity:1">
          <path
             id="path913"
             style="font-style:normal;font-variant:normal;font-weight:normal;font-stretch:normal;font-family:'Berlin Sans FB Demi';-inkscape-font-specification:'Berlin Sans FB Demi';fill:#1affff;fill-opacity:1;stroke-width:3.77953;filter:url(#filter1469)"
             d="m 523.65384,453.33984 c -0.20835,0 -0.39065,0.2474 -0.54687,0.74219 -0.27344,0.85937 -2.00522,5.60549 -5.19531,14.23828 -2.94272,7.98176 -4.41407,12.14195 -4.41407,12.48047 0,0.37763 0.9961,0.56641 2.98828,0.56641 2.52604,0 4.01042,-0.0522 4.45313,-0.15625 0.35152,-0.0911 0.651,-0.6771 0.89844,-1.75782 0.27331,-1.18485 0.5207,-1.88146 0.74219,-2.08984 0.14321,-0.11716 -1.08614,-0.17578 1.1274,-0.17578 3.28121,0 7.43375,0.0455 7.64213,0.13672 0.24738,0.13019 0.59244,1.13281 1.03515,3.00781 0.11719,0.49472 0.39714,0.78769 0.83985,0.87891 0.53384,0.10406 1.73177,0.15625 3.59375,0.15625 2.03124,0 3.24218,-0.0522 3.63281,-0.15625 0.32552,-0.0912 0.48828,-0.25395 0.48828,-0.48828 v -0.002 c 0,-0.35154 -1.54948,-4.55732 -4.64844,-12.61718 -3.08591,-8.00779 -4.9479,-12.69532 -5.58593,-14.0625 -0.20828,-0.42971 -0.43617,-0.64454 -0.6836,-0.64454 -0.33854,0 -0.85285,0.026 -1.54297,0.0781 -0.67706,0.0391 -1.19139,0.0586 -1.54297,0.0586 -0.36457,0 -0.91795,-0.0307 -1.66015,-0.0957 -0.72915,-0.065 -1.26952,-0.0977 -1.6211,-0.0977 z m -51.66556,0.46875 c -3.46353,0 -5.70313,0.0651 -6.71875,0.19532 -0.41668,0.0521 -0.61199,0.20178 -0.58594,0.44921 l 0.0195,0.27344 c 0.35157,4.5052 0.52735,8.80209 0.52735,12.89063 0,1.44529 -0.026,3.6198 -0.0781,6.52343 -0.039,2.89064 -0.0586,5.05862 -0.0586,6.50391 0,0.3776 0.1888,0.56641 0.56641,0.56641 0.79426,0 1.98568,0.0195 3.57422,0.0586 1.58853,0.0522 2.77995,0.0781 3.57421,0.0781 0.27344,0 0.41016,-0.14973 0.41016,-0.44922 0,-0.58593 -0.0586,-1.47135 -0.17578,-2.65625 -0.11719,-1.18488 -0.17578,-2.07683 -0.17578,-2.67578 0,-0.48177 0.27995,-0.72266 0.83984,-0.72266 0.52083,0 1.30209,0.0326 2.34375,0.0977 1.05469,0.0521 1.84245,0.0781 2.36328,0.0781 3.11197,0 5.55341,-1.03514 7.32422,-3.10547 1.65365,-1.95311 2.48047,-4.5052 2.48047,-7.65625 0,-3.0729 -0.96356,-5.55991 -2.89063,-7.46093 -1.88801,-1.8489 -4.375,-2.81895 -7.46093,-2.91016 -1.875,-0.0522 -3.83465,-0.0781 -5.87891,-0.0781 z m 67.73438,0 c -0.26044,0 -0.39063,0.21483 -0.39063,0.64453 0,0.78123 0.0391,1.95312 0.11719,3.51563 0.0781,1.56248 0.11719,2.73437 0.11719,3.51563 0,0.32551 0.14975,0.74218 0.44921,1.25 2.92969,4.59633 5.18231,8.0078 6.75782,10.23437 0.31249,0.48176 0.46875,0.931 0.46875,1.34766 0,0.70311 -0.0586,1.7643 -0.17578,3.18359 -0.11717,1.40624 -0.17579,2.45444 -0.17579,3.14453 10e-6,0.32544 0.18231,0.51425 0.54688,0.56641 0.52082,0.0781 1.72526,0.11719 3.61328,0.11718 1.875,0 3.04689,-0.0391 3.51563,-0.11718 0.32562,-0.0524 0.50139,-0.0851 0.52734,-0.0977 0.10406,-0.0521 0.15625,-0.19536 0.15625,-0.42969 0,-0.67709 -0.0391,-1.70573 -0.11719,-3.08593 -0.0781,-1.38021 -0.11719,-2.41538 -0.11719,-3.10547 10e-6,-0.44271 0.20835,-0.93751 0.625,-1.48438 2.94272,-3.72394 5.26696,-7.27213 6.97266,-10.64453 0.20838,-0.41665 0.3125,-0.90494 0.3125,-1.46484 0,-0.70312 -0.0131,-1.74479 -0.0391,-3.125 -0.0259,-1.39321 -0.0391,-2.43489 -0.0391,-3.125 0,-0.5599 -0.13019,-0.83985 -0.39063,-0.83985 -0.79425,0 -1.97918,0.0391 -3.55469,0.11719 -1.5625,0.065 -2.73437,0.0977 -3.51562,0.0977 h -0.48828 c -0.11717,0.0391 -0.17578,0.19531 -0.17578,0.46875 0,0.65103 0.0455,1.64062 0.13672,2.96875 0.10406,1.3151 0.15624,2.29818 0.15624,2.94922 0,0.32551 -0.55988,1.26952 -1.67968,2.83203 -0.88542,1.24999 -1.59506,2.18749 -2.12891,2.8125 -0.58593,-0.66407 -1.33462,-1.60807 -2.24609,-2.83203 -1.14583,-1.56251 -1.71875,-2.53909 -1.71875,-2.92969 0,-0.66406 0.026,-1.66016 0.0781,-2.98828 0.065,-1.34116 0.0977,-2.34375 0.0977,-3.00781 0,-0.19528 -0.14976,-0.29297 -0.44922,-0.29297 -0.80731,0 -2.01825,-0.0327 -3.63281,-0.0977 -1.61459,-0.065 -2.81903,-0.0977 -3.61328,-0.0977 z m -40.80078,0.0195 c -0.42969,0 -1.06773,0.026 -1.91407,0.0781 -0.84636,0.0391 -1.48438,0.0586 -1.91406,0.0586 -0.3776,0 -0.95703,-0.0195 -1.73828,-0.0586 -0.76823,-0.0391 -1.34766,-0.0586 -1.73828,-0.0586 -0.39063,0 -0.58594,0.14322 -0.58594,0.42968 0,1.5104 0.0455,3.77605 0.13672,6.79688 0.0912,3.0078 0.13672,5.26692 0.13672,6.77734 0,1.41927 -0.026,3.5482 -0.0781,6.38672 -0.0391,2.82553 -0.0586,4.94793 -0.0586,6.36719 0,0.33862 0.1888,0.54046 0.56641,0.60547 1.09374,0.0648 1.9336,0.0907 2.51953,0.0781 l 5.83984,0.0781 c 0.57293,0.0129 2.03126,0.0455 4.375,0.0976 1.79686,0.0522 3.2552,0.0781 4.375,0.0781 0.46884,0 3.14352,-0.0131 3.20853,-0.0391 0.20843,-0.0651 -1.40033,-0.26693 -1.33532,-0.60547 0.32552,-1.61457 -0.17399,-3.53515 -0.17399,-5.76172 0,-0.29947 -0.1758,-0.44922 -0.52735,-0.44922 -1.17188,0 -2.9297,0.065 -5.27343,0.19531 -2.33074,0.11717 -4.08203,0.17578 -5.25391,0.17578 h -0.50781 c -0.18268,-0.039 -0.28037,-0.13674 -0.29297,-0.29297 -0.0134,-0.15629 -0.0265,-0.31252 -0.0391,-0.46874 -0.0126,-0.76823 -0.0176,-1.9857 -0.0176,-3.65235 l 0.0176,-5.15625 c 0.19532,-4.90882 0.37112,-8.58726 0.52734,-11.03516 l 0.0195,-0.2539 c 0.0129,-0.24743 -0.0782,-0.3711 -0.27343,-0.3711 z m -22.92969,6.19141 c 2.95572,0 4.43359,1.51693 4.43359,4.55078 0,2.85156 -1.41277,4.27735 -4.23828,4.27735 -2.34374,0 -3.51562,-0.13019 -3.51562,-0.39063 0,-0.40363 -0.0195,-0.99609 -0.0586,-1.77734 -0.026,-0.79428 -0.0391,-1.39325 -0.0391,-1.79688 0,-2.83847 0.0456,-4.34239 0.13672,-4.51172 0.10416,-0.23433 1.19792,-0.35156 3.28125,-0.35156 z m 51.09915,2.91016 c 0.41817,0.41817 0.70311,1.71875 1.28907,3.59375 0.59895,1.9401 0.89843,3.125 0.89843,3.55468 0,0.11717 -0.0131,0.20843 -0.0391,0.27344 -0.0911,0.20838 -0.56639,0.3125 -1.42578,0.3125 -0.92447,0 -1.58856,-0.0131 -1.99219,-0.0391 -0.78125,-0.0261 -1.17187,-0.15629 -1.17187,-0.39062 0,-0.35158 0.35157,-1.54298 1.05469,-3.57422 0.65103,-1.91406 1.11328,-3.15757 1.38671,-3.73047 z"
             transform="matrix(0.26458333,0,0,0.26458333,-28.430114,15.234363)"
             sodipodi:nodetypes="cccsscccscccscssccscscccccccscsscssssscscscccccsssccscscsccsssccscsscscscscccscsssccccscsscscsccccsccsscscccccccccsssscscssscscscsccs" />
        </g>
        <g
           aria-label="PLAY"
           transform="matrix(1.9871015,0,0,1.9871015,-145.31685,-172.89483)"
           id="g923"
           style="font-size:10.5833px;line-height:1.25;font-family:'Cooper Black';-inkscape-font-specification:'Cooper Black, ';white-space:pre;shape-inside:url(#rect881);fill:#ff00ff;fill-opacity:1">
          <path
             id="path921"
             style="font-style:normal;font-variant:normal;font-weight:normal;font-stretch:normal;font-family:'Berlin Sans FB Demi';-inkscape-font-specification:'Berlin Sans FB Demi';fill:#ff4eff;fill-opacity:1;stroke-width:3.77953;filter:url(#filter1465)"
             d="m 523.65384,453.33984 c -0.20835,0 -0.39065,0.2474 -0.54687,0.74219 -0.27344,0.85937 -2.00522,5.60549 -5.19531,14.23828 -2.94272,7.98176 -4.41407,12.14195 -4.41407,12.48047 0,0.37763 0.9961,0.56641 2.98828,0.56641 2.52604,0 4.01042,-0.0522 4.45313,-0.15625 0.35152,-0.0911 0.651,-0.6771 0.89844,-1.75782 0.27331,-1.18485 0.5207,-1.88146 0.74219,-2.08984 0.14321,-0.11716 -1.08614,-0.17578 1.1274,-0.17578 3.28121,0 6.77148,0.0455 6.97986,0.13672 0.24738,0.13019 1.25471,1.13281 1.69742,3.00781 0.11719,0.49472 0.39714,0.78769 0.83985,0.87891 0.53384,0.10406 1.73177,0.15625 3.59375,0.15625 2.03124,0 3.24218,-0.0522 3.63281,-0.15625 0.32552,-0.0912 0.48828,-0.25395 0.48828,-0.48828 v -0.002 c 0,-0.35154 -1.54948,-4.55732 -4.64844,-12.61718 -3.08591,-8.00779 -4.9479,-12.69532 -5.58593,-14.0625 -0.20828,-0.42971 -0.43617,-0.64454 -0.6836,-0.64454 -0.33854,0 -0.85285,0.026 -1.54297,0.0781 -0.67706,0.0391 -1.19139,0.0586 -1.54297,0.0586 -0.36457,0 -0.91795,-0.0307 -1.66015,-0.0957 -0.72915,-0.065 -1.26952,-0.0977 -1.6211,-0.0977 z m -51.66556,0.46875 c -3.46353,0 -5.70313,0.0651 -6.71875,0.19532 -0.41668,0.0521 -0.61199,0.20178 -0.58594,0.44921 l 0.0195,0.27344 c 0.35157,4.5052 0.52735,8.80209 0.52735,12.89063 0,1.44529 -0.026,3.6198 -0.0781,6.52343 -0.039,2.89064 -0.0586,5.05862 -0.0586,6.50391 0,0.3776 0.1888,0.56641 0.56641,0.56641 0.79426,0 1.98568,0.0195 3.57422,0.0586 1.58853,0.0522 2.77995,0.0781 3.57421,0.0781 0.27344,0 0.41016,-0.14973 0.41016,-0.44922 0,-0.58593 -0.0586,-1.47135 -0.17578,-2.65625 -0.11719,-1.18488 -0.17578,-2.07683 -0.17578,-2.67578 0,-0.48177 0.27995,-0.72266 0.83984,-0.72266 0.52083,0 1.30209,0.0326 2.34375,0.0977 1.05469,0.0521 1.84245,0.0781 2.36328,0.0781 3.11197,0 5.55341,-1.03514 7.32422,-3.10547 1.65365,-1.95311 2.48047,-4.5052 2.48047,-7.65625 0,-3.0729 -0.96356,-5.55991 -2.89063,-7.46093 -1.88801,-1.8489 -4.375,-2.81895 -7.46093,-2.91016 -1.875,-0.0522 -3.83465,-0.0781 -5.87891,-0.0781 z m 67.73438,0 c -0.26044,0 -0.39063,0.21483 -0.39063,0.64453 0,0.78123 0.0391,1.95312 0.11719,3.51563 0.0781,1.56248 0.11719,2.73437 0.11719,3.51563 0,0.32551 0.14975,0.74218 0.44921,1.25 2.92969,4.59633 5.18231,8.0078 6.75782,10.23437 0.31249,0.48176 0.46875,0.931 0.46875,1.34766 0,0.70311 -0.0586,1.7643 -0.17578,3.18359 -0.11717,1.40624 -0.17579,2.45444 -0.17579,3.14453 10e-6,0.32544 0.18231,0.51425 0.54688,0.56641 0.52082,0.0781 1.72526,0.11719 3.61328,0.11718 1.875,0 3.04689,-0.0391 3.51563,-0.11718 0.32562,-0.0524 0.50139,-0.0851 0.52734,-0.0977 0.10406,-0.0521 0.15625,-0.19536 0.15625,-0.42969 0,-0.67709 -0.0391,-1.70573 -0.11719,-3.08593 -0.0781,-1.38021 -0.11719,-2.41538 -0.11719,-3.10547 10e-6,-0.44271 0.20835,-0.93751 0.625,-1.48438 2.94272,-3.72394 5.26696,-7.27213 6.97266,-10.64453 0.20838,-0.41665 0.3125,-0.90494 0.3125,-1.46484 0,-0.70312 -0.0131,-1.74479 -0.0391,-3.125 -0.0259,-1.39321 -0.0391,-2.43489 -0.0391,-3.125 0,-0.5599 -0.13019,-0.83985 -0.39063,-0.83985 -0.79425,0 -1.97918,0.0391 -3.55469,0.11719 -1.5625,0.065 -2.73437,0.0977 -3.51562,0.0977 h -0.48828 c -0.11717,0.0391 -0.17578,0.19531 -0.17578,0.46875 0,0.65103 0.0455,1.64062 0.13672,2.96875 0.10406,1.3151 0.15624,2.29818 0.15624,2.94922 0,0.32551 -0.55988,1.26952 -1.67968,2.83203 -0.88542,1.24999 -1.59506,2.18749 -2.12891,2.8125 -0.58593,-0.66407 -1.33462,-1.60807 -2.24609,-2.83203 -1.14583,-1.56251 -1.71875,-2.53909 -1.71875,-2.92969 0,-0.66406 0.026,-1.66016 0.0781,-2.98828 0.065,-1.34116 0.0977,-2.34375 0.0977,-3.00781 0,-0.19528 -0.14976,-0.29297 -0.44922,-0.29297 -0.80731,0 -2.01825,-0.0327 -3.63281,-0.0977 -1.61459,-0.065 -2.81903,-0.0977 -3.61328,-0.0977 z m -40.80078,0.0195 c -0.42969,0 -1.06773,0.026 -1.91407,0.0781 -0.84636,0.0391 -1.48438,0.0586 -1.91406,0.0586 -0.3776,0 -0.95703,-0.0195 -1.73828,-0.0586 -0.76823,-0.0391 -1.34766,-0.0586 -1.73828,-0.0586 -0.39063,0 -0.58594,0.14322 -0.58594,0.42968 0,1.5104 0.0455,3.77605 0.13672,6.79688 0.0912,3.0078 0.13672,5.26692 0.13672,6.77734 0,1.41927 -0.026,3.5482 -0.0781,6.38672 -0.0391,2.82553 -0.0586,4.94793 -0.0586,6.36719 0,0.33862 0.1888,0.54046 0.56641,0.60547 1.09374,0.0648 1.9336,0.0907 2.51953,0.0781 l 5.83984,0.0781 c 0.57293,0.0129 2.03126,0.0455 4.375,0.0976 1.79686,0.0522 3.2552,0.0781 4.375,0.0781 0.46884,0 0.73577,-0.0131 0.80078,-0.0391 0.20843,-0.0651 0.34515,-0.26693 0.41016,-0.60547 0.32552,-1.61457 0.48828,-3.53515 0.48828,-5.76172 0,-0.29947 -0.1758,-0.44922 -0.52735,-0.44922 -1.17188,0 -2.9297,0.065 -5.27343,0.19531 -2.33074,0.11717 -4.08203,0.17578 -5.25391,0.17578 h -0.50781 c -0.18268,-0.039 -0.28037,-0.13674 -0.29297,-0.29297 -0.0134,-0.15629 -0.0265,-0.31252 -0.0391,-0.46874 -0.0126,-0.76823 -0.0176,-1.9857 -0.0176,-3.65235 l 0.0176,-5.15625 c 0.19532,-4.90882 0.37112,-8.58726 0.52734,-11.03516 l 0.0195,-0.2539 c 0.0129,-0.24743 -0.0782,-0.3711 -0.27343,-0.3711 z m -22.92969,6.19141 c 2.95572,0 4.43359,1.51693 4.43359,4.55078 0,2.85156 -1.41277,4.27735 -4.23828,4.27735 -2.34374,0 -3.51562,-0.13019 -3.51562,-0.39063 0,-0.40363 -0.0195,-0.99609 -0.0586,-1.77734 -0.026,-0.79428 -0.0391,-1.39325 -0.0391,-1.79688 0,-2.83847 0.0456,-4.34239 0.13672,-4.51172 0.10416,-0.23433 1.19792,-0.35156 3.28125,-0.35156 z m 51.09915,2.91016 c 0.41817,0.41817 0.70311,1.71875 1.28907,3.59375 0.59895,1.9401 0.89843,3.125 0.89843,3.55468 0,0.11717 -0.0131,0.20843 -0.0391,0.27344 -0.0911,0.20838 -0.56639,0.3125 -1.42578,0.3125 -0.92447,0 -1.58856,-0.0131 -1.99219,-0.0391 -0.78125,-0.0261 -1.17187,-0.15629 -1.17187,-0.39062 0,-0.35158 0.35157,-1.54298 1.05469,-3.57422 0.65103,-1.91406 1.11328,-3.15757 1.38671,-3.73047 z"
             transform="matrix(0.26458333,0,0,0.26458333,-28.430114,15.234363)"
             sodipodi:nodetypes="cccsscccscccscssccscscccccccscsscssssscscscccccsssccscscsccsssccscsscscscscccscsssccccscsscscsccccsccsscscccccccccsssscscssscscscsccs" />
        </g>
        <g
           aria-label="PLAY"
           transform="matrix(1.9871015,0,0,1.9871015,-144.78768,-173.424)"
           id="text879"
           style="font-size:10.5833px;line-height:1.25;font-family:'Cooper Black';-inkscape-font-specification:'Cooper Black, ';white-space:pre;shape-inside:url(#rect881);fill:#38b6ff;fill-opacity:1">
          <path
             id="path895"
             style="font-style:normal;font-variant:normal;font-weight:normal;font-stretch:normal;font-family:'Berlin Sans FB Demi';-inkscape-font-specification:'Berlin Sans FB Demi';fill:#85b6ff;fill-opacity:1;stroke:#000000;stroke-width:0.983613;stroke-miterlimit:4;stroke-dasharray:none;stroke-opacity:1"
             d="m 523.65384,453.33984 c -0.20835,0 -0.39065,0.2474 -0.54687,0.74219 -0.27344,0.85937 -2.00522,5.60549 -5.19531,14.23828 -2.94272,7.98176 -4.41407,12.14195 -4.41407,12.48047 0,0.37763 0.9961,0.56641 2.98828,0.56641 2.52604,0 4.01042,-0.0522 4.45313,-0.15625 0.35152,-0.0911 0.651,-0.6771 0.89844,-1.75782 0.27331,-1.18485 0.5207,-1.88146 0.74219,-2.08984 0.14321,-0.11716 -1.08614,-0.17578 1.1274,-0.17578 3.28121,0 7.43375,0.0455 7.64213,0.13672 0.24738,0.13019 0.59244,1.13281 1.03515,3.00781 0.11719,0.49472 0.39714,0.78769 0.83985,0.87891 0.53384,0.10406 1.73177,0.15625 3.59375,0.15625 2.03124,0 3.24218,-0.0522 3.63281,-0.15625 0.32552,-0.0912 0.48828,-0.25395 0.48828,-0.48828 v -0.002 c 0,-0.35154 -1.54948,-4.55732 -4.64844,-12.61718 -3.08591,-8.00779 -4.9479,-12.69532 -5.58593,-14.0625 -0.20828,-0.42971 -0.43617,-0.64454 -0.6836,-0.64454 -0.33854,0 -0.85285,0.026 -1.54297,0.0781 -0.67706,0.0391 -1.19139,0.0586 -1.54297,0.0586 -0.36457,0 -0.91795,-0.0307 -1.66015,-0.0957 -0.72915,-0.065 -1.26952,-0.0977 -1.6211,-0.0977 z m -51.66556,0.46875 c -3.46353,0 -5.70313,0.0651 -6.71875,0.19532 -0.41668,0.0521 -0.61199,0.20178 -0.58594,0.44921 l 0.0195,0.27344 c 0.35157,4.5052 0.52735,8.80209 0.52735,12.89063 0,1.44529 -0.026,3.6198 -0.0781,6.52343 -0.039,2.89064 -0.0586,5.05862 -0.0586,6.50391 0,0.3776 0.1888,0.56641 0.56641,0.56641 0.79426,0 1.98568,0.0195 3.57422,0.0586 1.58853,0.0522 2.77995,0.0781 3.57421,0.0781 0.27344,0 0.41016,-0.14973 0.41016,-0.44922 0,-0.58593 -0.0586,-1.47135 -0.17578,-2.65625 -0.11719,-1.18488 -0.17578,-2.07683 -0.17578,-2.67578 0,-0.48177 0.27995,-0.72266 0.83984,-0.72266 0.52083,0 1.30209,0.0326 2.34375,0.0977 1.05469,0.0521 1.84245,0.0781 2.36328,0.0781 3.11197,0 5.55341,-1.03514 7.32422,-3.10547 1.65365,-1.95311 2.48047,-4.5052 2.48047,-7.65625 0,-3.0729 -0.96356,-5.55991 -2.89063,-7.46093 -1.88801,-1.8489 -4.375,-2.81895 -7.46093,-2.91016 -1.875,-0.0522 -3.83465,-0.0781 -5.87891,-0.0781 z m 67.73438,0 c -0.26044,0 -0.39063,0.21483 -0.39063,0.64453 0,0.78123 0.0391,1.95312 0.11719,3.51563 0.0781,1.56248 0.11719,2.73437 0.11719,3.51563 0,0.32551 0.14975,0.74218 0.44921,1.25 2.92969,4.59633 5.18231,8.0078 6.75782,10.23437 0.31249,0.48176 0.46875,0.931 0.46875,1.34766 0,0.70311 -0.0586,1.7643 -0.17578,3.18359 -0.11717,1.40624 -0.17579,2.45444 -0.17579,3.14453 10e-6,0.32544 0.18231,0.51425 0.54688,0.56641 0.52082,0.0781 1.72526,0.11719 3.61328,0.11718 1.875,0 3.04689,-0.0391 3.51563,-0.11718 0.32562,-0.0524 0.50139,-0.0851 0.52734,-0.0977 0.10406,-0.0521 0.15625,-0.19536 0.15625,-0.42969 0,-0.67709 -0.0391,-1.70573 -0.11719,-3.08593 -0.0781,-1.38021 -0.11719,-2.41538 -0.11719,-3.10547 10e-6,-0.44271 0.20835,-0.93751 0.625,-1.48438 2.94272,-3.72394 5.26696,-7.27213 6.97266,-10.64453 0.20838,-0.41665 0.3125,-0.90494 0.3125,-1.46484 0,-0.70312 -0.0131,-1.74479 -0.0391,-3.125 -0.0259,-1.39321 -0.0391,-2.43489 -0.0391,-3.125 0,-0.5599 -0.13019,-0.83985 -0.39063,-0.83985 -0.79425,0 -1.97918,0.0391 -3.55469,0.11719 -1.5625,0.065 -2.73437,0.0977 -3.51562,0.0977 h -0.48828 c -0.11717,0.0391 -0.17578,0.19531 -0.17578,0.46875 0,0.65103 0.0455,1.64062 0.13672,2.96875 0.10406,1.3151 0.15624,2.29818 0.15624,2.94922 0,0.32551 -0.55988,1.26952 -1.67968,2.83203 -0.88542,1.24999 -1.59506,2.18749 -2.12891,2.8125 -0.58593,-0.66407 -1.33462,-1.60807 -2.24609,-2.83203 -1.14583,-1.56251 -1.71875,-2.53909 -1.71875,-2.92969 0,-0.66406 0.026,-1.66016 0.0781,-2.98828 0.065,-1.34116 0.0977,-2.34375 0.0977,-3.00781 0,-0.19528 -0.14976,-0.29297 -0.44922,-0.29297 -0.80731,0 -2.01825,-0.0327 -3.63281,-0.0977 -1.61459,-0.065 -2.81903,-0.0977 -3.61328,-0.0977 z m -40.80078,0.0195 c -0.42969,0 -1.06773,0.026 -1.91407,0.0781 -0.84636,0.0391 -1.48438,0.0586 -1.91406,0.0586 -0.3776,0 -0.95703,-0.0195 -1.73828,-0.0586 -0.76823,-0.0391 -1.34766,-0.0586 -1.73828,-0.0586 -0.39063,0 -0.58594,0.14322 -0.58594,0.42968 0,1.5104 0.0455,3.77605 0.13672,6.79688 0.0912,3.0078 0.13672,5.26692 0.13672,6.77734 0,1.41927 -0.026,3.5482 -0.0781,6.38672 -0.0391,2.82553 -0.0586,4.94793 -0.0586,6.36719 0,0.33862 0.1888,0.54046 0.56641,0.60547 1.09374,0.0648 1.9336,0.0907 2.51953,0.0781 l 5.83984,0.0781 c 0.57293,0.0129 2.03126,0.0455 4.375,0.0976 1.79686,0.0522 3.2552,0.0781 4.375,0.0781 0.46884,0 0.73577,-0.0131 0.80078,-0.0391 0.20843,-0.0651 0.34515,-0.26693 0.41016,-0.60547 0.32552,-1.61457 0.48828,-3.53515 0.48828,-5.76172 0,-0.29947 -0.1758,-0.44922 -0.52735,-0.44922 -1.17188,0 -2.9297,0.065 -5.27343,0.19531 -2.33074,0.11717 -4.08203,0.17578 -5.25391,0.17578 h -0.50781 c -0.18268,-0.039 -0.28037,-0.13674 -0.29297,-0.29297 -0.0134,-0.15629 -0.0265,-0.31252 -0.0391,-0.46874 -0.0126,-0.76823 -0.0176,-1.9857 -0.0176,-3.65235 l 0.0176,-5.15625 c 0.19532,-4.90882 0.37112,-8.58726 0.52734,-11.03516 l 0.0195,-0.2539 c 0.0129,-0.24743 -0.0782,-0.3711 -0.27343,-0.3711 z m -22.92969,6.19141 c 2.95572,0 4.43359,1.51693 4.43359,4.55078 0,2.85156 -1.41277,4.27735 -4.23828,4.27735 -2.34374,0 -3.51562,-0.13019 -3.51562,-0.39063 0,-0.40363 -0.0195,-0.99609 -0.0586,-1.77734 -0.026,-0.79428 -0.0391,-1.39325 -0.0391,-1.79688 0,-2.83847 0.0456,-4.34239 0.13672,-4.51172 0.10416,-0.23433 1.19792,-0.35156 3.28125,-0.35156 z m 51.09915,2.91016 c 0.41817,0.41817 0.70311,1.71875 1.28907,3.59375 0.59895,1.9401 0.89843,3.125 0.89843,3.55468 0,0.11717 -0.0131,0.20843 -0.0391,0.27344 -0.0911,0.20838 -0.56639,0.3125 -1.42578,0.3125 -0.92447,0 -1.58856,-0.0131 -1.99219,-0.0391 -0.78125,-0.0261 -1.17187,-0.15629 -1.17187,-0.39062 0,-0.35158 0.35157,-1.54298 1.05469,-3.57422 0.65103,-1.91406 1.11328,-3.15757 1.38671,-3.73047 z"
             transform="matrix(0.26458333,0,0,0.26458333,-28.430114,15.234363)"
             sodipodi:nodetypes="cccsscccscccscssccscscccccccscsscssssscscscccccsssccscscsccsssccscsscscscscccscsssccccscsscscsccccsccsscscccccccccsssscscssscscscsccs" />
        </g>
      </g>
      <circle
         style="fill:#050505;fill-opacity:1;stroke:none;stroke-width:0.317;stroke-linecap:round;stroke-linejoin:round"
         id="path883"
         cx="101.76901"
         cy="90.667946"
         r="1.9513021" />
    </g>
  </g>
</svg>
