<?xml version="1.0" encoding="UTF-8" standalone="no"?>
<svg
   xmlns:dc="http://purl.org/dc/elements/1.1/"
   xmlns:cc="http://creativecommons.org/ns#"
   xmlns:rdf="http://www.w3.org/1999/02/22-rdf-syntax-ns#"
   xmlns:svg="http://www.w3.org/2000/svg"
   xmlns="http://www.w3.org/2000/svg"
   xmlns:sodipodi="http://sodipodi.sourceforge.net/DTD/sodipodi-0.dtd"
   xmlns:inkscape="http://www.inkscape.org/namespaces/inkscape"
   width="115.697mm"
   height="12.689mm"
   viewBox="0 0 115.697 12.689"
   version="1.1"
   id="svg8"
   inkscape:version="1.0.2-2 (e86c870879, 2021-01-15)"
   sodipodi:docname="logo.svg">
  <defs
     id="defs2">
    <rect
       x="94.078873"
       y="132.56569"
       width="37.551369"
       height="20.980658"
       id="rect881" />
  </defs>
  <sodipodi:namedview
     id="base"
     pagecolor="#ffffff"
     bordercolor="#666666"
     borderopacity="1.0"
     inkscape:pageopacity="0.0"
     inkscape:pageshadow="2"
     inkscape:zoom="2.8284271"
     inkscape:cx="177.91476"
     inkscape:cy="87.820728"
     inkscape:document-units="mm"
     inkscape:current-layer="g1485"
     inkscape:document-rotation="0"
     showgrid="false"
     showguides="false"
     inkscape:guide-bbox="true"
     inkscape:window-width="1858"
     inkscape:window-height="1057"
     inkscape:window-x="54"
     inkscape:window-y="-8"
     inkscape:window-maximized="1">
    <sodipodi:guide
       position="0,40.195284"
       orientation="1,0"
       id="guide879" />
    <sodipodi:guide
       position="-1.1823568,35.532002"
       orientation="0,1"
       id="guide881"
       inkscape:label=""
       inkscape:locked="false"
       inkscape:color="rgb(0,0,255)" />
    <sodipodi:guide
       position="115.901,15.573454"
       orientation="-1,0"
       id="guide941"
       inkscape:label=""
       inkscape:locked="false"
       inkscape:color="rgb(0,0,255)" />
    <sodipodi:guide
       position="-0.057877605,19.846002"
       orientation="0,1"
       id="guide943"
       inkscape:label=""
       inkscape:locked="false"
       inkscape:color="rgb(0,0,255)" />
  </sodipodi:namedview>
  <metadata
     id="metadata5">
    <rdf:RDF>
      <cc:Work
         rdf:about="">
        <dc:format>image/svg+xml</dc:format>
        <dc:type
           rdf:resource="http://purl.org/dc/dcmitype/StillImage" />
        <dc:title></dc:title>
      </cc:Work>
    </rdf:RDF>
  </metadata>
  <g
     inkscape:label="Layer 1"
     inkscape:groupmode="layer"
     id="layer1">
    <g
       id="g1485"
       transform="translate(-39.014201,-76.807501)"
       inkscape:export-xdpi="87.211441"
       inkscape:export-ydpi="87.211441">
      <g
         id="g877"
         transform="translate(-0.59493782,18.413847)">
        <g
           aria-label="GAMING"
           id="text867"
           style="font-size:16.3041px;line-height:1.25;font-family:'Cooper Black';-inkscape-font-specification:'Cooper Black, ';opacity:0.7;fill:#ff4eff;fill-opacity:1;stroke:none;stroke-width:0.423;stroke-linejoin:round;stroke-miterlimit:4;stroke-dasharray:none">
          <path
             d="m 101.0033,70.629221 q 0.0159,0.214946 -0.22291,0.214946 -0.15126,0 -0.87571,-0.175141 -0.716489,-0.175142 -0.883669,-0.23883 -1.663846,0.652801 -3.192356,0.652801 -2.459945,0 -4.03622,-1.639963 -1.560353,-1.616081 -1.560353,-4.083986 0,-2.523633 1.512587,-4.187479 1.560354,-1.719573 4.052142,-1.719573 1.21007,0 2.276842,0.461737 1.154343,0.509503 1.815105,1.432978 0.135342,0.191063 0.135342,0.270673 0,0.254752 -0.716494,1.146382 -0.708528,0.88367 -0.915513,0.88367 -0.04777,0 -0.366206,-0.326401 -0.390088,-0.390088 -0.796098,-0.605035 -0.605035,-0.3264 -1.337446,-0.3264 -1.194148,0 -1.894715,0.89163 -0.6528,0.819982 -0.6528,2.045974 0,1.29764 0.676683,2.053934 0.700567,0.780177 1.982286,0.780177 0.812021,0 1.815105,-0.40601 -0.02388,-0.262713 -0.143298,-1.337446 -0.103493,-0.827943 -0.103493,-1.337446 0,-0.151259 0.103493,-0.183103 0.0398,-0.01592 0.127376,-0.01592 0.230868,0 0.692606,0.04777 0.469698,0.03981 0.708527,0.03981 0.254752,0 0.764255,-0.03184 0.509502,-0.03981 0.764252,-0.03981 0.19903,0 0.19903,0.262713 0,0.382127 -0.0478,1.154343 -0.0398,0.772216 -0.0398,1.154343 0,1.026967 0.15126,3.072941 z"
             style="font-style:normal;font-variant:normal;font-weight:normal;font-stretch:normal;font-family:'Berlin Sans FB Demi';-inkscape-font-specification:'Berlin Sans FB Demi';fill:#ff4eff;fill-opacity:1;stroke:none;stroke-width:0.423;stroke-linejoin:round;stroke-miterlimit:4;stroke-dasharray:none"
             id="path879" />
          <path
             d="m 112.61838,70.684948 q 0,0.143297 -0.19903,0.199024 -0.23883,0.06369 -1.48074,0.06369 -1.13842,0 -1.46482,-0.06369 -0.27068,-0.05573 -0.34233,-0.358244 -0.27067,-1.146382 -0.42193,-1.225992 -0.12737,-0.05573 -2.13354,-0.05573 -1.35337,0 -1.44094,0.07165 -0.13534,0.127376 -0.30252,0.851825 -0.15126,0.660762 -0.3662,0.716489 -0.27068,0.06369 -1.81511,0.06369 -1.21803,0 -1.21803,-0.230869 0,-0.206985 1.79918,-5.08707 1.95044,-5.278134 2.11762,-5.803559 0.0955,-0.302517 0.22291,-0.302517 0.21495,0 0.66076,0.03981 0.45378,0.0398 0.67669,0.0398 0.21494,0 0.62892,-0.02388 0.42193,-0.03184 0.62891,-0.03184 0.15126,0 0.27864,0.262712 0.39009,0.835904 2.27684,5.73191 1.89472,4.927851 1.89472,5.142798 z m -5.64434,-7.252459 q -0.16718,0.350283 -0.56523,1.520548 -0.4299,1.241914 -0.4299,1.456861 0,0.143298 0.47766,0.15922 0.24679,0.01592 0.81202,0.01592 0.52543,0 0.58115,-0.127376 0.0159,-0.0398 0.0159,-0.111454 0,-0.262713 -0.36621,-1.4489 -0.35824,-1.146382 -0.52542,-1.464821 z"
             style="font-style:normal;font-variant:normal;font-weight:normal;font-stretch:normal;font-family:'Berlin Sans FB Demi';-inkscape-font-specification:'Berlin Sans FB Demi';fill:#ff4eff;fill-opacity:1;stroke:none;stroke-width:0.423;stroke-linejoin:round;stroke-miterlimit:4;stroke-dasharray:none"
             id="path881" />
          <path
             d="m 125.30023,70.637182 q 0,0.24679 -0.23087,0.24679 h -2.81819 q -0.23087,0 -0.23087,-0.278634 0,-0.80406 0.0557,-2.412179 0.0637,-1.608119 0.0637,-2.412179 0,-0.230869 -0.0716,-0.246791 -0.0876,0.04777 -1.06677,2.459945 -0.5732,1.417056 -1.14639,2.82615 -0.0796,0.183103 -0.19902,0.214947 -0.0398,0.008 -0.31844,0.008 -0.41397,0 -0.49358,-0.15922 -0.4299,-0.875708 -1.13046,-2.547515 -0.74833,-1.767339 -1.1225,-2.555477 -0.0159,-0.03981 -0.0716,-0.08757 -0.0557,0.07165 -0.0557,0.230869 0,0.780176 0.0398,2.34053 0.0398,1.560353 0.0398,2.34053 0,0.278634 -0.2229,0.278634 h -2.65897 q -0.15922,0 -0.19903,-0.04777 -0.0318,-0.05573 -0.0318,-0.183102 0,-0.867748 0.0796,-2.603243 0.0876,-1.743456 0.0876,-2.611203 0,-0.923475 -0.0796,-3.46303 -0.008,-0.660761 -0.0717,-1.966363 l -0.008,-0.135337 q -0.008,-0.15922 0.33436,-0.15922 0.43785,0 1.31356,-0.02388 0.87571,-0.03184 1.31357,-0.03184 0.0876,0 0.24679,0.334362 l 2.3246,5.102992 q 0.24679,0.517464 0.41398,0.517464 0.0876,0 0.37416,-0.597074 0.80406,-1.671807 2.38034,-5.039304 0.13533,-0.310479 0.29455,-0.310479 0.23087,0 0.69261,0.02388 0.4697,0.02388 0.70853,0.02388 0.19902,0 0.60503,-0.03981 0.41397,-0.03981 0.613,-0.03981 0.23883,0 0.23883,0.191064 0,0.939397 -0.0717,2.810228 -0.0637,1.862871 -0.0637,2.802268 0,0.867747 0.0716,2.603242 0.0717,1.735495 0.0717,2.595282 z"
             style="font-style:normal;font-variant:normal;font-weight:normal;font-stretch:normal;font-family:'Berlin Sans FB Demi';-inkscape-font-specification:'Berlin Sans FB Demi';fill:#ff4eff;fill-opacity:1;stroke:none;stroke-width:0.423;stroke-linejoin:round;stroke-miterlimit:4;stroke-dasharray:none"
             id="path883" />
          <path
             d="m 130.01313,65.000803 q 0,0.939397 0.0478,2.82615 0.0478,1.886754 0.0478,2.826151 0,0.159219 -0.0716,0.199024 -0.0159,0.008 -0.20699,0.03184 -0.51746,0.06369 -1.38521,0.06369 -1.16231,0 -1.48075,-0.06369 -0.23086,-0.04777 -0.23086,-0.24679 0,0.127375 0.0716,-1.401134 0.1433,-3.224199 0.1433,-4.235245 0,-0.851825 -0.0557,-2.555476 -0.0557,-1.703651 -0.0557,-2.555477 0,-0.175142 0.1831,-0.175142 0.24679,0 0.74037,0.02388 0.50155,0.02388 0.74834,0.02388 0.24679,0 0.72445,-0.02388 0.48562,-0.02388 0.73241,-0.02388 0.23086,0 0.23086,0.175142 0,0.851826 -0.0955,2.555477 -0.0876,1.703651 -0.0876,2.555476 z"
             style="font-style:normal;font-variant:normal;font-weight:normal;font-stretch:normal;font-family:'Berlin Sans FB Demi';-inkscape-font-specification:'Berlin Sans FB Demi';fill:#ff4eff;fill-opacity:1;stroke:none;stroke-width:0.423;stroke-linejoin:round;stroke-miterlimit:4;stroke-dasharray:none"
             id="path885" />
          <path
             d="m 142.28897,59.961499 q 0,0.907552 -0.0796,2.730618 -0.0717,1.815105 -0.0717,2.730619 v 5.24629 q 0,0.214946 -0.23086,0.214946 -0.19107,0 -0.58116,0.01592 -0.38212,0.01592 -0.57319,0.01592 -0.20698,0 -0.62095,-0.03184 -0.41398,-0.03184 -0.62096,-0.03184 -0.1433,0 -0.34232,-0.262712 -0.57319,-0.772216 -2.57936,-3.423224 -0.54931,-0.740372 -1.67181,-2.181311 -0.0318,-0.04777 -0.11942,-0.09553 -0.0637,0.05573 -0.0637,0.175142 0,0.923475 0.0478,2.770423 0.0557,1.846949 0.0557,2.770424 0,0.278634 -0.21495,0.278634 h -2.7545 q -0.23087,0 -0.23087,-0.24679 0,-0.859787 0.0796,-2.595282 0.0876,-1.735495 0.0876,-2.603242 0,-0.915514 -0.0796,-2.73858 -0.0717,-1.823066 -0.0717,-2.730618 0,-0.175142 0.31048,-0.175142 0.46174,0 1.13842,-0.06369 0.15922,-0.01592 0.62892,-0.103493 0.39805,-0.07165 0.62892,-0.07165 0.0955,0 0.29456,0.270673 l 2.96944,4.068064 q 0.39805,0.549308 1.20211,1.608119 0.19903,0.246791 0.34233,0.246791 0.10349,0 0.10349,-0.620957 0,-0.835904 -0.0955,-2.515672 -0.0876,-1.679768 -0.0876,-2.523632 0,-0.294557 0.16718,-0.294557 0.47766,0 1.44094,-0.0398 0.96327,-0.03981 1.44093,-0.03981 0.15126,0 0.15126,0.246791 z"
             style="font-style:normal;font-variant:normal;font-weight:normal;font-stretch:normal;font-family:'Berlin Sans FB Demi';-inkscape-font-specification:'Berlin Sans FB Demi';fill:#ff4eff;fill-opacity:1;stroke:none;stroke-width:0.423;stroke-linejoin:round;stroke-miterlimit:4;stroke-dasharray:none"
             id="path887" />
          <path
             d="m 154.24637,70.629221 q 0.0159,0.214946 -0.2229,0.214946 -0.15126,0 -0.87571,-0.175141 -0.71649,-0.175142 -0.88367,-0.23883 -1.66385,0.652801 -3.19236,0.652801 -2.45994,0 -4.03622,-1.639963 -1.56035,-1.616081 -1.56035,-4.083986 0,-2.523633 1.51259,-4.187479 1.56035,-1.719573 4.05214,-1.719573 1.21007,0 2.27684,0.461737 1.15434,0.509503 1.8151,1.432978 0.13534,0.191063 0.13534,0.270673 0,0.254752 -0.71649,1.146382 -0.70853,0.88367 -0.91551,0.88367 -0.0478,0 -0.36621,-0.326401 -0.39008,-0.390088 -0.79609,-0.605035 -0.60504,-0.3264 -1.33745,-0.3264 -1.19415,0 -1.89472,0.89163 -0.6528,0.819982 -0.6528,2.045974 0,1.29764 0.67669,2.053934 0.70056,0.780177 1.98228,0.780177 0.81202,0 1.81511,-0.40601 -0.0239,-0.262713 -0.1433,-1.337446 -0.10349,-0.827943 -0.10349,-1.337446 0,-0.151259 0.10349,-0.183103 0.0398,-0.01592 0.12738,-0.01592 0.23086,0 0.6926,0.04777 0.4697,0.03981 0.70853,0.03981 0.25475,0 0.76425,-0.03184 0.50951,-0.03981 0.76426,-0.03981 0.19902,0 0.19902,0.262713 0,0.382127 -0.0478,1.154343 -0.0398,0.772216 -0.0398,1.154343 0,1.026967 0.15126,3.072941 z"
             style="font-style:normal;font-variant:normal;font-weight:normal;font-stretch:normal;font-family:'Berlin Sans FB Demi';-inkscape-font-specification:'Berlin Sans FB Demi';fill:#ff4eff;fill-opacity:1;stroke:none;stroke-width:0.423;stroke-linejoin:round;stroke-miterlimit:4;stroke-dasharray:none"
             id="path889" />
        </g>
        <g
           aria-label="GAMING"
           id="text863"
           style="font-size:16.3041px;line-height:1.25;font-family:'Cooper Black';-inkscape-font-specification:'Cooper Black, ';opacity:0.7;fill:#55e4ff;fill-opacity:1;stroke:none;stroke-width:0.423;stroke-linejoin:round;stroke-miterlimit:4;stroke-dasharray:none">
          <path
             d="m 102.06163,69.570879 q 0.0159,0.214946 -0.22291,0.214946 -0.15126,0 -0.87571,-0.175141 -0.71648,-0.175142 -0.88366,-0.23883 -1.663851,0.652801 -3.19236,0.652801 -2.459945,0 -4.03622,-1.639963 -1.560354,-1.616081 -1.560354,-4.083986 0,-2.523633 1.512588,-4.187479 1.560353,-1.719573 4.052142,-1.719573 1.21007,0 2.276842,0.461737 1.154342,0.509503 1.815102,1.432978 0.13534,0.191063 0.13534,0.270673 0,0.254752 -0.71649,1.146382 -0.708527,0.88367 -0.915513,0.88367 -0.04777,0 -0.366205,-0.326401 -0.390088,-0.390088 -0.796099,-0.605035 -0.605035,-0.3264 -1.337446,-0.3264 -1.194147,0 -1.894714,0.89163 -0.652801,0.819982 -0.652801,2.045974 0,1.29764 0.676684,2.053934 0.700566,0.780177 1.982285,0.780177 0.812021,0 1.815105,-0.40601 -0.02388,-0.262713 -0.143298,-1.337446 -0.103492,-0.827943 -0.103492,-1.337446 0,-0.151259 0.103492,-0.183103 0.03981,-0.01592 0.127376,-0.01592 0.230869,0 0.692606,0.04777 0.4697,0.03981 0.70853,0.03981 0.25475,0 0.76425,-0.03184 0.50951,-0.03981 0.76426,-0.03981 0.19902,0 0.19902,0.262713 0,0.382127 -0.0478,1.154343 -0.0398,0.772216 -0.0398,1.154343 0,1.026967 0.15126,3.072941 z"
             style="font-style:normal;font-variant:normal;font-weight:normal;font-stretch:normal;font-family:'Berlin Sans FB Demi';-inkscape-font-specification:'Berlin Sans FB Demi';fill:#55e4ff;fill-opacity:1;stroke:none;stroke-width:0.423;stroke-linejoin:round;stroke-miterlimit:4;stroke-dasharray:none"
             id="path905" />
          <path
             d="m 113.67671,69.626606 q 0,0.143297 -0.19902,0.199024 -0.23883,0.06369 -1.48075,0.06369 -1.13842,0 -1.46482,-0.06369 -0.27067,-0.05573 -0.34232,-0.358244 -0.27068,-1.146382 -0.42193,-1.225992 -0.12738,-0.05573 -2.13355,-0.05573 -1.35337,0 -1.44094,0.07165 -0.13533,0.127376 -0.30251,0.851825 -0.15126,0.660762 -0.36621,0.716489 -0.27067,0.06369 -1.81511,0.06369 -1.21803,0 -1.21803,-0.230869 0,-0.206985 1.79919,-5.08707 1.95044,-5.278134 2.11762,-5.803559 0.0955,-0.302517 0.22291,-0.302517 0.21494,0 0.66076,0.03981 0.45377,0.03981 0.67668,0.03981 0.21495,0 0.62892,-0.02388 0.42193,-0.03184 0.62892,-0.03184 0.15126,0 0.27863,0.262712 0.39009,0.835904 2.27684,5.73191 1.89472,4.927851 1.89472,5.142798 z m -5.64434,-7.252459 q -0.16718,0.350283 -0.56523,1.520548 -0.42989,1.241914 -0.42989,1.456861 0,0.143298 0.47766,0.15922 0.24679,0.01592 0.81202,0.01592 0.52542,0 0.58115,-0.127376 0.0159,-0.03981 0.0159,-0.111454 0,-0.262713 -0.3662,-1.4489 -0.35825,-1.146382 -0.52543,-1.464821 z"
             style="font-style:normal;font-variant:normal;font-weight:normal;font-stretch:normal;font-family:'Berlin Sans FB Demi';-inkscape-font-specification:'Berlin Sans FB Demi';fill:#55e4ff;fill-opacity:1;stroke:none;stroke-width:0.423;stroke-linejoin:round;stroke-miterlimit:4;stroke-dasharray:none"
             id="path907" />
          <path
             d="m 126.35856,69.57884 q 0,0.24679 -0.23087,0.24679 h -2.81819 q -0.23086,0 -0.23086,-0.278634 0,-0.80406 0.0557,-2.412179 0.0637,-1.608119 0.0637,-2.412179 0,-0.230869 -0.0716,-0.246791 -0.0876,0.04777 -1.06677,2.459945 -0.57319,1.417056 -1.14638,2.82615 -0.0796,0.183103 -0.19903,0.214947 -0.0398,0.008 -0.31844,0.008 -0.41397,0 -0.49358,-0.15922 -0.42989,-0.875708 -1.13046,-2.547515 -0.74833,-1.767339 -1.1225,-2.555477 -0.0159,-0.03981 -0.0717,-0.08757 -0.0557,0.07165 -0.0557,0.230869 0,0.780176 0.0398,2.34053 0.0398,1.560353 0.0398,2.34053 0,0.278634 -0.22291,0.278634 h -2.65897 q -0.15922,0 -0.19902,-0.04777 -0.0318,-0.05573 -0.0318,-0.183102 0,-0.867748 0.0796,-2.603243 0.0876,-1.743456 0.0876,-2.611203 0,-0.923475 -0.0796,-3.46303 -0.008,-0.660761 -0.0717,-1.966363 l -0.008,-0.135337 q -0.008,-0.15922 0.33436,-0.15922 0.43786,0 1.31357,-0.02388 0.87571,-0.03184 1.31356,-0.03184 0.0876,0 0.24679,0.334362 l 2.32461,5.102992 q 0.24679,0.517464 0.41397,0.517464 0.0876,0 0.37417,-0.597074 0.80406,-1.671807 2.38033,-5.039304 0.13534,-0.310479 0.29456,-0.310479 0.23087,0 0.6926,0.02388 0.4697,0.02388 0.70853,0.02388 0.19903,0 0.60504,-0.03981 0.41397,-0.0398 0.61299,-0.0398 0.23883,0 0.23883,0.191064 0,0.939397 -0.0717,2.810228 -0.0637,1.862871 -0.0637,2.802268 0,0.867747 0.0717,2.603242 0.0716,1.735495 0.0716,2.595282 z"
             style="font-style:normal;font-variant:normal;font-weight:normal;font-stretch:normal;font-family:'Berlin Sans FB Demi';-inkscape-font-specification:'Berlin Sans FB Demi';fill:#55e4ff;fill-opacity:1;stroke:none;stroke-width:0.423;stroke-linejoin:round;stroke-miterlimit:4;stroke-dasharray:none"
             id="path909" />
          <path
             d="m 131.07147,63.942461 q 0,0.939397 0.0478,2.82615 0.0478,1.886754 0.0478,2.826151 0,0.159219 -0.0717,0.199024 -0.0159,0.008 -0.20699,0.03184 -0.51746,0.06369 -1.38521,0.06369 -1.1623,0 -1.48074,-0.06369 -0.23087,-0.04777 -0.23087,-0.24679 0,0.127375 0.0717,-1.401134 0.1433,-3.224199 0.1433,-4.235245 0,-0.851825 -0.0557,-2.555476 -0.0557,-1.703651 -0.0557,-2.555477 0,-0.175142 0.18311,-0.175142 0.24679,0 0.74037,0.02388 0.50154,0.02388 0.74833,0.02388 0.24679,0 0.72445,-0.02388 0.48562,-0.02388 0.73241,-0.02388 0.23087,0 0.23087,0.175142 0,0.851826 -0.0955,2.555477 -0.0876,1.703651 -0.0876,2.555476 z"
             style="font-style:normal;font-variant:normal;font-weight:normal;font-stretch:normal;font-family:'Berlin Sans FB Demi';-inkscape-font-specification:'Berlin Sans FB Demi';fill:#55e4ff;fill-opacity:1;stroke:none;stroke-width:0.423;stroke-linejoin:round;stroke-miterlimit:4;stroke-dasharray:none"
             id="path911" />
          <path
             d="m 143.34731,58.903157 q 0,0.907552 -0.0796,2.730618 -0.0716,1.815105 -0.0716,2.730619 v 5.24629 q 0,0.214946 -0.23087,0.214946 -0.19106,0 -0.58115,0.01592 -0.38213,0.01592 -0.57319,0.01592 -0.20699,0 -0.62096,-0.03184 -0.41397,-0.03184 -0.62096,-0.03184 -0.14329,0 -0.34232,-0.262712 -0.57319,-0.772216 -2.57936,-3.423224 -0.54931,-0.740372 -1.67181,-2.181311 -0.0318,-0.04777 -0.11941,-0.09553 -0.0637,0.05573 -0.0637,0.175142 0,0.923475 0.0478,2.770423 0.0557,1.846949 0.0557,2.770424 0,0.278634 -0.21494,0.278634 h -2.7545 q -0.23087,0 -0.23087,-0.24679 0,-0.859787 0.0796,-2.595282 0.0876,-1.735495 0.0876,-2.603242 0,-0.915514 -0.0796,-2.73858 -0.0717,-1.823066 -0.0717,-2.730618 0,-0.175142 0.31048,-0.175142 0.46174,0 1.13842,-0.06369 0.15922,-0.01592 0.62892,-0.103493 0.39805,-0.07165 0.62891,-0.07165 0.0955,0 0.29456,0.270673 l 2.96945,4.068064 q 0.39805,0.549308 1.20211,1.608119 0.19902,0.246791 0.34232,0.246791 0.10349,0 0.10349,-0.620957 0,-0.835904 -0.0955,-2.515672 -0.0876,-1.679768 -0.0876,-2.523632 0,-0.294557 0.16718,-0.294557 0.47766,0 1.44094,-0.03981 0.96328,-0.03981 1.44094,-0.03981 0.15126,0 0.15126,0.246791 z"
             style="font-style:normal;font-variant:normal;font-weight:normal;font-stretch:normal;font-family:'Berlin Sans FB Demi';-inkscape-font-specification:'Berlin Sans FB Demi';fill:#55e4ff;fill-opacity:1;stroke:none;stroke-width:0.423;stroke-linejoin:round;stroke-miterlimit:4;stroke-dasharray:none"
             id="path913" />
          <path
             d="m 155.30471,69.570879 q 0.0159,0.214946 -0.22291,0.214946 -0.15126,0 -0.87571,-0.175141 -0.71649,-0.175142 -0.88367,-0.23883 -1.66384,0.652801 -3.19235,0.652801 -2.45995,0 -4.03622,-1.639963 -1.56036,-1.616081 -1.56036,-4.083986 0,-2.523633 1.51259,-4.187479 1.56035,-1.719573 4.05214,-1.719573 1.21007,0 2.27684,0.461737 1.15435,0.509503 1.81511,1.432978 0.13534,0.191063 0.13534,0.270673 0,0.254752 -0.71649,1.146382 -0.70853,0.88367 -0.91552,0.88367 -0.0478,0 -0.3662,-0.326401 -0.39009,-0.390088 -0.7961,-0.605035 -0.60504,-0.3264 -1.33745,-0.3264 -1.19414,0 -1.89471,0.89163 -0.6528,0.819982 -0.6528,2.045974 0,1.29764 0.67668,2.053934 0.70057,0.780177 1.98229,0.780177 0.81202,0 1.8151,-0.40601 -0.0239,-0.262713 -0.1433,-1.337446 -0.10349,-0.827943 -0.10349,-1.337446 0,-0.151259 0.10349,-0.183103 0.0398,-0.01592 0.12738,-0.01592 0.23087,0 0.69261,0.04777 0.46969,0.03981 0.70852,0.03981 0.25476,0 0.76426,-0.03184 0.5095,-0.03981 0.76425,-0.03981 0.19903,0 0.19903,0.262713 0,0.382127 -0.0478,1.154343 -0.0398,0.772216 -0.0398,1.154343 0,1.026967 0.15126,3.072941 z"
             style="font-style:normal;font-variant:normal;font-weight:normal;font-stretch:normal;font-family:'Berlin Sans FB Demi';-inkscape-font-specification:'Berlin Sans FB Demi';fill:#55e4ff;fill-opacity:1;stroke:none;stroke-width:0.423;stroke-linejoin:round;stroke-miterlimit:4;stroke-dasharray:none"
             id="path915" />
        </g>
        <g
           aria-label="PROG."
           id="text855"
           style="font-size:16.3041px;line-height:1.25;font-family:'Cooper Black';-inkscape-font-specification:'Cooper Black, ';stroke-width:1.22281">
          <path
             d="m 49.203064,63.476766 q 0,1.926558 -1.011045,3.120706 -1.082694,1.265797 -2.98537,1.265797 -0.31844,0 -0.96328,-0.03184 -0.636878,-0.03981 -0.955318,-0.03981 -0.342322,0 -0.342322,0.294557 0,0.366205 0.07165,1.090655 0.07165,0.72445 0.07165,1.082694 0,0.183103 -0.16718,0.183103 -0.48562,0 -1.456861,-0.03184 -0.97124,-0.02388 -1.45686,-0.02388 -0.230869,0 -0.230869,-0.230869 0,-0.883669 0.02388,-2.651008 0.03184,-1.7753 0.03184,-2.65897 0,-2.499749 -0.214947,-5.254251 l -0.008,-0.111453 q -0.01592,-0.151259 0.23883,-0.183103 0.620957,-0.07961 2.738579,-0.07961 1.249875,0 2.396257,0.03184 1.886754,0.05573 3.041097,1.186187 1.178226,1.162304 1.178226,3.041097 z m -3.176434,0.127375 q 0,-1.854909 -1.807143,-1.854909 -1.273758,0 -1.337446,0.143297 -0.05573,0.103493 -0.05573,1.838988 0,0.246791 0.01592,0.732411 0.02388,0.477659 0.02388,0.72445 0,0.159219 1.432977,0.159219 1.727534,0 1.727534,-1.743456 z"
             style="font-style:normal;font-variant:normal;font-weight:normal;font-stretch:normal;font-family:'Berlin Sans FB Demi';-inkscape-font-specification:'Berlin Sans FB Demi';stroke-width:1.22281"
             id="path918" />
          <path
             d="m 59.783214,70.307292 q 0,0.05573 -0.159219,0.07961 -0.302518,0.04777 -1.520549,0.04777 -1.042889,0 -1.417055,-0.04777 -0.175142,-0.02388 -0.199025,-0.03981 -0.04777,-0.02388 -0.111454,-0.15922 -0.119415,-0.310478 -0.350283,-0.923474 -0.310479,-0.796099 -0.971241,-2.348491 -0.143297,-0.310479 -0.660761,-0.342323 0.238829,0.01592 -0.819982,0.01592 -0.119415,0 -0.119415,0.406011 0,0.541347 0.09553,1.61608 0.103493,1.074733 0.103493,1.61608 0,0.135337 -0.07165,0.15922 -0.111454,0.008 -0.222908,0.01592 -0.469698,0.03184 -1.464821,0.03184 -1.138421,0 -1.36929,-0.04777 -0.230868,-0.04777 -0.230868,-0.246791 0,-0.875708 0.07961,-2.643047 0.08757,-1.767339 0.08757,-2.651009 0,-3.367497 -0.151258,-5.254251 l -0.008,-0.111453 q -0.008,-0.135337 0.24679,-0.183103 0.262713,-0.04777 2.436062,-0.09553 1.472783,-0.03184 2.348491,-0.03184 1.815105,0 2.961487,0.819982 1.297641,0.923474 1.297641,2.66693 0,1.162304 -0.334362,1.85491 -0.334361,0.692606 -1.233953,1.345407 -0.183102,0.127375 -0.183102,0.238829 0,-0.008 0.97124,1.998208 0.97124,2.006168 0.97124,2.213154 z M 56.4396,63.166287 q 0,-0.97124 -0.636879,-1.345406 -0.493581,-0.286596 -1.544431,-0.286596 -0.756294,0 -0.80406,0.230869 -0.04777,0.270673 -0.04777,1.560353 0,0.183103 0.008,0.541347 0.008,0.358244 0.008,0.533386 0,0.03981 0.254752,0.07961 0.48562,0.07165 1.019006,0.07165 1.743456,0 1.743456,-1.385212 z"
             style="font-style:normal;font-variant:normal;font-weight:normal;font-stretch:normal;font-family:'Berlin Sans FB Demi';-inkscape-font-specification:'Berlin Sans FB Demi';stroke-width:1.22281"
             id="path920" />
          <path
             d="m 71.740614,64.814211 q 0,2.483828 -1.584236,4.163596 -1.61608,1.703651 -4.091947,1.703651 -2.459945,0 -4.083986,-1.719573 -1.592197,-1.679768 -1.592197,-4.147674 0,-2.475866 1.592197,-4.163595 1.624041,-1.727534 4.083986,-1.727534 2.444023,0 4.076025,1.727534 1.600158,1.703651 1.600158,4.163595 z m -3.017213,-0.01592 q 0,-1.194148 -0.72445,-2.030051 -0.756294,-0.875709 -1.93452,-0.875709 -1.122499,0 -1.902676,0.907553 -0.756293,0.875708 -0.756293,2.014129 0,1.218031 0.708528,2.030052 0.748332,0.851825 1.950441,0.851825 1.122499,0 1.910637,-0.899591 0.748333,-0.859787 0.748333,-1.998208 z"
             style="font-style:normal;font-variant:normal;font-weight:normal;font-stretch:normal;font-family:'Berlin Sans FB Demi';-inkscape-font-specification:'Berlin Sans FB Demi';stroke-width:1.22281"
             id="path922" />
          <path
             d="m 83.403462,70.13215 q 0.01592,0.214947 -0.222908,0.214947 -0.151258,0 -0.875708,-0.175142 -0.716489,-0.175141 -0.88367,-0.238829 -1.663846,0.652801 -3.192355,0.652801 -2.459945,0 -4.03622,-1.639964 -1.560354,-1.61608 -1.560354,-4.083986 0,-2.523632 1.512588,-4.187478 1.560353,-1.719574 4.052142,-1.719574 1.21007,0 2.276842,0.461738 1.154343,0.509503 1.815105,1.432977 0.135337,0.191064 0.135337,0.270674 0,0.254751 -0.716489,1.146382 -0.708528,0.883669 -0.915514,0.883669 -0.04777,0 -0.366205,-0.3264 -0.390088,-0.390089 -0.796099,-0.605035 -0.605035,-0.326401 -1.337445,-0.326401 -1.194148,0 -1.894715,0.891631 -0.652801,0.819981 -0.652801,2.045973 0,1.297641 0.676684,2.053935 0.700567,0.780177 1.982286,0.780177 0.81202,0 1.815104,-0.406011 -0.02388,-0.262712 -0.143297,-1.337445 -0.103493,-0.827943 -0.103493,-1.337446 0,-0.151259 0.103493,-0.183103 0.03981,-0.01592 0.127375,-0.01592 0.230869,0 0.692606,0.04777 0.469698,0.03981 0.708528,0.03981 0.254752,0 0.764255,-0.03184 0.509503,-0.03981 0.764254,-0.03981 0.199025,0 0.199025,0.262713 0,0.382127 -0.04777,1.154343 -0.03981,0.772215 -0.03981,1.154343 0,1.026967 0.151259,3.07294 z"
             style="font-style:normal;font-variant:normal;font-weight:normal;font-stretch:normal;font-family:'Berlin Sans FB Demi';-inkscape-font-specification:'Berlin Sans FB Demi';stroke-width:1.22281"
             id="path924" />
          <path
             d="m 87.941222,68.643446 q 0,0.788137 -0.549308,1.345407 -0.541347,0.557269 -1.321524,0.557269 -0.780176,0 -1.321523,-0.557269 -0.541347,-0.56523 -0.541347,-1.345407 0,-0.780177 0.541347,-1.337446 0.541347,-0.557269 1.321523,-0.557269 0.780177,0 1.321524,0.557269 0.549308,0.557269 0.549308,1.337446 z"
             style="font-style:normal;font-variant:normal;font-weight:normal;font-stretch:normal;font-family:'Berlin Sans FB Demi';-inkscape-font-specification:'Berlin Sans FB Demi';stroke-width:1.22281"
             id="path926" />
        </g>
        <g
           aria-label="GAMING"
           id="text859"
           style="font-size:16.3041px;line-height:1.25;font-family:'Cooper Black';-inkscape-font-specification:'Cooper Black, ';fill:#85b6ff;fill-opacity:1;stroke:#000000;stroke-width:0.423;stroke-linejoin:round;stroke-miterlimit:4;stroke-dasharray:none">
          <path
             d="m 101.50036,70.13215 q 0.0159,0.214947 -0.22291,0.214947 -0.15126,0 -0.87571,-0.175142 -0.716486,-0.175141 -0.883667,-0.238829 -1.663846,0.652801 -3.192355,0.652801 -2.459945,0 -4.03622,-1.639964 -1.560353,-1.61608 -1.560353,-4.083986 0,-2.523632 1.512587,-4.187478 1.560353,-1.719574 4.052142,-1.719574 1.21007,0 2.276842,0.461738 1.154343,0.509503 1.815104,1.432977 0.13534,0.191064 0.13534,0.270674 0,0.254751 -0.716491,1.146382 -0.708528,0.883669 -0.915513,0.883669 -0.04777,0 -0.366206,-0.3264 -0.390088,-0.390089 -0.796098,-0.605035 -0.605035,-0.326401 -1.337446,-0.326401 -1.194148,0 -1.894715,0.891631 -0.652801,0.819981 -0.652801,2.045973 0,1.297641 0.676684,2.053935 0.700567,0.780177 1.982286,0.780177 0.81202,0 1.815105,-0.406011 -0.02388,-0.262712 -0.143298,-1.337445 -0.103493,-0.827943 -0.103493,-1.337446 0,-0.151259 0.103493,-0.183103 0.03981,-0.01592 0.127376,-0.01592 0.230868,0 0.692605,0.04777 0.469699,0.03981 0.708528,0.03981 0.254752,0 0.764254,-0.03184 0.5095,-0.03981 0.76426,-0.03981 0.19902,0 0.19902,0.262713 0,0.382127 -0.0478,1.154343 -0.0398,0.772215 -0.0398,1.154343 0,1.026967 0.15126,3.07294 z"
             style="font-style:normal;font-variant:normal;font-weight:normal;font-stretch:normal;font-family:'Berlin Sans FB Demi';-inkscape-font-specification:'Berlin Sans FB Demi';fill:#85b6ff;fill-opacity:1;stroke:#000000;stroke-width:0.423;stroke-linejoin:round;stroke-miterlimit:4;stroke-dasharray:none"
             id="path892" />
          <path
             d="m 113.11544,70.187877 q 0,0.143298 -0.19903,0.199025 -0.23883,0.06369 -1.48074,0.06369 -1.13842,0 -1.46482,-0.06369 -0.27068,-0.05573 -0.34232,-0.358245 -0.27068,-1.146382 -0.42194,-1.225991 -0.12737,-0.05573 -2.13354,-0.05573 -1.35337,0 -1.44094,0.07165 -0.13534,0.127375 -0.30252,0.851825 -0.15126,0.660762 -0.3662,0.716489 -0.27068,0.06369 -1.81511,0.06369 -1.21803,0 -1.21803,-0.230869 0,-0.206986 1.79919,-5.08707 1.95044,-5.278134 2.11762,-5.803559 0.0955,-0.302518 0.22291,-0.302518 0.21494,0 0.66076,0.03981 0.45377,0.03981 0.67668,0.03981 0.21495,0 0.62892,-0.02388 0.42193,-0.03184 0.62892,-0.03184 0.15126,0 0.27863,0.262713 0.39009,0.835903 2.27684,5.73191 1.89472,4.927851 1.89472,5.142797 z m -5.64434,-7.252458 q -0.16718,0.350283 -0.56523,1.520548 -0.42989,1.241914 -0.42989,1.456861 0,0.143297 0.47765,0.159219 0.2468,0.01592 0.81203,0.01592 0.52542,0 0.58115,-0.127376 0.0159,-0.0398 0.0159,-0.111453 0,-0.262713 -0.36621,-1.4489 -0.35824,-1.146382 -0.52542,-1.464821 z"
             style="font-style:normal;font-variant:normal;font-weight:normal;font-stretch:normal;font-family:'Berlin Sans FB Demi';-inkscape-font-specification:'Berlin Sans FB Demi';fill:#85b6ff;fill-opacity:1;stroke:#000000;stroke-width:0.423;stroke-linejoin:round;stroke-miterlimit:4;stroke-dasharray:none"
             id="path894" />
          <path
             d="m 125.79729,70.140111 q 0,0.246791 -0.23087,0.246791 h -2.81819 q -0.23087,0 -0.23087,-0.278635 0,-0.804059 0.0557,-2.412179 0.0637,-1.608119 0.0637,-2.412178 0,-0.230869 -0.0717,-0.246791 -0.0876,0.04777 -1.06677,2.459945 -0.57319,1.417055 -1.14638,2.82615 -0.0796,0.183103 -0.19903,0.214947 -0.0398,0.008 -0.31844,0.008 -0.41397,0 -0.49358,-0.15922 -0.42989,-0.875709 -1.13046,-2.547516 -0.74833,-1.767339 -1.1225,-2.555476 -0.0159,-0.03981 -0.0717,-0.08757 -0.0557,0.07165 -0.0557,0.230868 0,0.780177 0.0398,2.34053 0.0398,1.560354 0.0398,2.34053 0,0.278635 -0.22291,0.278635 h -2.65897 q -0.15922,0 -0.19903,-0.04777 -0.0318,-0.05573 -0.0318,-0.183103 0,-0.867747 0.0796,-2.603242 0.0876,-1.743456 0.0876,-2.611204 0,-0.923474 -0.0796,-3.463029 -0.008,-0.660762 -0.0716,-1.966363 l -0.008,-0.135337 q -0.008,-0.15922 0.33436,-0.15922 0.43786,0 1.31357,-0.02388 0.8757,-0.03184 1.31356,-0.03184 0.0876,0 0.24679,0.334362 l 2.32461,5.102992 q 0.24679,0.517464 0.41397,0.517464 0.0876,0 0.37416,-0.597074 0.80406,-1.671807 2.38034,-5.039304 0.13534,-0.310479 0.29456,-0.310479 0.23086,0 0.6926,0.02388 0.4697,0.02388 0.70853,0.02388 0.19902,0 0.60503,-0.03981 0.41398,-0.03981 0.613,-0.03981 0.23883,0 0.23883,0.191064 0,0.939396 -0.0717,2.810228 -0.0637,1.862871 -0.0637,2.802267 0,0.867748 0.0717,2.603243 0.0717,1.735495 0.0717,2.595281 z"
             style="font-style:normal;font-variant:normal;font-weight:normal;font-stretch:normal;font-family:'Berlin Sans FB Demi';-inkscape-font-specification:'Berlin Sans FB Demi';fill:#85b6ff;fill-opacity:1;stroke:#000000;stroke-width:0.423;stroke-linejoin:round;stroke-miterlimit:4;stroke-dasharray:none"
             id="path896" />
          <path
             d="m 130.51019,64.503733 q 0,0.939396 0.0478,2.82615 0.0478,1.886754 0.0478,2.82615 0,0.15922 -0.0717,0.199025 -0.0159,0.008 -0.20699,0.03184 -0.51746,0.06369 -1.38521,0.06369 -1.1623,0 -1.48074,-0.06369 -0.23087,-0.04777 -0.23087,-0.246791 0,0.127376 0.0716,-1.401133 0.1433,-3.2242 0.1433,-4.235245 0,-0.851826 -0.0557,-2.555477 -0.0557,-1.703651 -0.0557,-2.555476 0,-0.175142 0.1831,-0.175142 0.24679,0 0.74038,0.02388 0.50154,0.02388 0.74833,0.02388 0.24679,0 0.72445,-0.02388 0.48562,-0.02388 0.73241,-0.02388 0.23087,0 0.23087,0.175142 0,0.851825 -0.0955,2.555476 -0.0876,1.703651 -0.0876,2.555477 z"
             style="font-style:normal;font-variant:normal;font-weight:normal;font-stretch:normal;font-family:'Berlin Sans FB Demi';-inkscape-font-specification:'Berlin Sans FB Demi';fill:#85b6ff;fill-opacity:1;stroke:#000000;stroke-width:0.423;stroke-linejoin:round;stroke-miterlimit:4;stroke-dasharray:none"
             id="path898" />
          <path
             d="m 142.78604,59.464429 q 0,0.907552 -0.0796,2.730618 -0.0717,1.815105 -0.0717,2.730618 v 5.24629 q 0,0.214947 -0.23087,0.214947 -0.19107,0 -0.58115,0.01592 -0.38213,0.01592 -0.57319,0.01592 -0.20699,0 -0.62096,-0.03184 -0.41397,-0.03184 -0.62096,-0.03184 -0.1433,0 -0.34232,-0.262713 -0.57319,-0.772215 -2.57936,-3.423224 -0.54931,-0.740371 -1.67181,-2.18131 -0.0318,-0.04777 -0.11941,-0.09553 -0.0637,0.05573 -0.0637,0.175142 0,0.923474 0.0478,2.770423 0.0557,1.846949 0.0557,2.770423 0,0.278635 -0.21494,0.278635 h -2.75451 q -0.23086,0 -0.23086,-0.246791 0,-0.859786 0.0796,-2.595281 0.0876,-1.735495 0.0876,-2.603243 0,-0.915513 -0.0796,-2.738579 -0.0717,-1.823066 -0.0717,-2.730618 0,-0.175142 0.31048,-0.175142 0.46173,0 1.13842,-0.06369 0.15922,-0.01592 0.62892,-0.103493 0.39804,-0.07165 0.62891,-0.07165 0.0955,0 0.29456,0.270674 l 2.96945,4.068064 q 0.39805,0.549308 1.20211,1.608119 0.19902,0.246791 0.34232,0.246791 0.10349,0 0.10349,-0.620957 0,-0.835904 -0.0955,-2.515672 -0.0876,-1.679768 -0.0876,-2.523633 0,-0.294556 0.16718,-0.294556 0.47766,0 1.44094,-0.03981 0.96328,-0.03981 1.44094,-0.03981 0.15126,0 0.15126,0.246791 z"
             style="font-style:normal;font-variant:normal;font-weight:normal;font-stretch:normal;font-family:'Berlin Sans FB Demi';-inkscape-font-specification:'Berlin Sans FB Demi';fill:#85b6ff;fill-opacity:1;stroke:#000000;stroke-width:0.423;stroke-linejoin:round;stroke-miterlimit:4;stroke-dasharray:none"
             id="path900" />
          <path
             d="m 154.74344,70.13215 q 0.0159,0.214947 -0.22291,0.214947 -0.15126,0 -0.87571,-0.175142 -0.71649,-0.175141 -0.88367,-0.238829 -1.66385,0.652801 -3.19236,0.652801 -2.45994,0 -4.03622,-1.639964 -1.56035,-1.61608 -1.56035,-4.083986 0,-2.523632 1.51259,-4.187478 1.56035,-1.719574 4.05214,-1.719574 1.21007,0 2.27684,0.461738 1.15435,0.509503 1.81511,1.432977 0.13533,0.191064 0.13533,0.270674 0,0.254751 -0.71648,1.146382 -0.70853,0.883669 -0.91552,0.883669 -0.0478,0 -0.3662,-0.3264 -0.39009,-0.390089 -0.7961,-0.605035 -0.60504,-0.326401 -1.33745,-0.326401 -1.19415,0 -1.89471,0.891631 -0.6528,0.819981 -0.6528,2.045973 0,1.297641 0.67668,2.053935 0.70057,0.780177 1.98229,0.780177 0.81202,0 1.8151,-0.406011 -0.0239,-0.262712 -0.1433,-1.337445 -0.10349,-0.827943 -0.10349,-1.337446 0,-0.151259 0.10349,-0.183103 0.0398,-0.01592 0.12738,-0.01592 0.23087,0 0.6926,0.04777 0.4697,0.03981 0.70853,0.03981 0.25475,0 0.76426,-0.03184 0.5095,-0.03981 0.76425,-0.03981 0.19903,0 0.19903,0.262713 0,0.382127 -0.0478,1.154343 -0.0398,0.772215 -0.0398,1.154343 0,1.026967 0.15125,3.07294 z"
             style="font-style:normal;font-variant:normal;font-weight:normal;font-stretch:normal;font-family:'Berlin Sans FB Demi';-inkscape-font-specification:'Berlin Sans FB Demi';fill:#85b6ff;fill-opacity:1;stroke:#000000;stroke-width:0.423;stroke-linejoin:round;stroke-miterlimit:4;stroke-dasharray:none"
             id="path902" />
        </g>
      </g>
    </g>
  </g>
</svg>
